<svg width="63" height="41" viewBox="0 0 63 41" fill="none" xmlns="http://www.w3.org/2000/svg">
<path fill-rule="evenodd" clip-rule="evenodd" d="M63 36.7V4.3C63 1.9 61.2 0 58.9 0H4.30001C2.00001 0 0.100006 1.9 0.100006 4.3V36.7C0.100006 39.1 2.00001 41 4.30001 41H58.9C61.2 41 63 39.1 63 36.7Z" fill="#009EE8"/>
<path fill-rule="evenodd" clip-rule="evenodd" d="M0.100006 36.9C0.200006 39.2 2.10001 41 4.30001 41H27.8L32.9 35.8C32.4 36.2 31.7 36.5 31 36.5H29.1H24.4H11.7C9.50001 36.5 7.40001 35.6 5.90001 34.1C3.20001 31 1.80001 32.9 0.800006 32.9H0.400006C0.300006 32.9 0.200006 32.9 0.100006 32.9C0.100006 32.9 0.100006 36.9 0.100006 36.9Z" fill="#005898"/>
<path fill-rule="evenodd" clip-rule="evenodd" d="M0 13.2V33.9C0.7 33.3 1.7 32.9 2.7 32.9H3.1C4.2 32.9 5.2 33.3 6 34.1C7.5 35.6 9.6 36.5 11.8 36.5H24.5H29.2H31C32.7 36.5 34.1 35.1 34.1 33.4C34.1 31.8 33 30.5 31.5 30.3C33 30 34.1 28.8 34.1 27.2C34.1 25.6 32.9 24.3 31.4 24.1C32.9 23.8 34.1 22.2 34.1 20.6C34.1 19.1 33.1 17.9 31.7 17.5H44.7C46.4 17.5 47.8 16.1 47.8 14.4C47.8 12.7 46.4 11.3 44.7 11.3H29.1H26.4H25.4C26.5 10.9 27.3 9.8 27.3 8.5C27.3 6.8 25.9 5.5 24.3 5.5H14.9C13.9 5.5 12.9 5.9 12.1 6.6L6 12.6C5.2 13.4 4.1 13.8 3 13.8H2.1C1.3 13.7 0.6 13.5 0 13.2Z" fill="white"/>
<path d="M46.6 16.8C46.1 17.2 45.4 17.5 44.6 17.5H31.6C33 17.8 34 19.1 34 20.6C34 22.2 32.8 23.8 31.3 24.1C32.8 24.3 34 25.6 34 27.2C34 28.7 32.9 30 31.4 30.3C31.8 30.4 32.3 30.5 32.6 30.8C32.7 30.8 46.6 16.8 46.6 16.8Z" fill="#005898"/>
</svg>
