<svg width="408" height="49" viewBox="0 0 408 49" fill="none" xmlns="http://www.w3.org/2000/svg">
<path d="M75.5 5.90002H80.4C81.5 5.90002 82.4 6.00002 82.9 6.20002C83.7 6.40002 84.4 6.80002 84.9 7.40002C85.5 8.00002 85.9 8.70002 86.2 9.60002C86.5 10.5 86.6 11.5 86.6 12.8C86.6 13.9 86.5 14.8 86.2 15.6C85.9 16.6 85.4 17.4 84.8 18C84.3 18.5 83.7 18.8 82.9 19.1C82.3 19.3 81.5 19.4 80.5 19.4H75.4C75.5 19.3 75.5 5.90002 75.5 5.90002ZM78.2 8.20002V17H80.2C80.9 17 81.5 17 81.8 16.9C82.2 16.8 82.6 16.6 82.9 16.3C83.2 16 83.4 15.6 83.6 15C83.8 14.4 83.9 13.6 83.9 12.6C83.9 11.6 83.8 10.8 83.6 10.2C83.4 9.60002 83.2 9.20002 82.8 8.90002C82.5 8.60002 82.1 8.40002 81.6 8.30002C81.2 8.20002 80.5 8.20002 79.4 8.20002H78.2ZM89 19.3V5.90002H94.7C96.1 5.90002 97.2 6.00002 97.8 6.30002C98.4 6.50002 99 7.00002 99.4 7.60002C99.8 8.20002 100 8.90002 100 9.70002C100 10.7 99.7 11.5 99.1 12.2C98.5 12.9 97.6 13.3 96.5 13.4C97.1 13.7 97.6 14.1 97.9 14.5C98.3 14.9 98.8 15.6 99.4 16.7L101 19.3H97.8L95.9 16.4C95.2 15.4 94.7 14.7 94.5 14.4C94.2 14.1 94 13.9 93.7 13.8C93.4 13.7 93 13.6 92.3 13.6H91.8V19.2C91.7 19.3 89 19.3 89 19.3ZM91.7 11.6H93.7C95 11.6 95.8 11.5 96.1 11.4C96.4 11.3 96.7 11.1 96.9 10.8C97.1 10.5 97.2 10.2 97.2 9.80002C97.2 9.30002 97.1 9.00002 96.8 8.70002C96.6 8.40002 96.2 8.20002 95.8 8.20002C95.6 8.20002 94.9 8.20002 93.8 8.20002H91.7V11.6ZM102.4 19.3V5.90002H112.3V8.20002H105.1V11.2H111.8V13.5H105.1V17H112.5V19.3H102.4ZM126.8 19.3H123.9L122.7 16.3H117.4L116.3 19.3H113.4L118.6 6.00002H121.5L126.8 19.3ZM121.9 14L120 9.00002L118.2 13.9H121.9V14ZM128.2 19.3V5.90002H132.2L134.6 15L137 5.90002H141V19.2H138.5V8.70002L135.9 19.2H133.3L130.7 8.70002V19.2H128.2V19.3ZM148 43.6V40.9H150.7V43.6H148ZM162.5 36.3L159.8 36.8C159.7 36.3 159.5 35.9 159.2 35.6C158.9 35.3 158.5 35.2 158 35.2C157.3 35.2 156.8 35.4 156.4 35.9C156 36.4 155.8 37.2 155.8 38.2C155.8 39.4 156 40.3 156.4 40.8C156.8 41.3 157.4 41.6 158 41.6C158.5 41.6 158.9 41.4 159.3 41.2C159.6 40.9 159.9 40.4 160 39.7L162.7 40.2C162.4 41.4 161.9 42.4 161.1 43C160.3 43.6 159.3 43.9 157.9 43.9C156.4 43.9 155.2 43.4 154.3 42.5C153.4 41.6 153 40.2 153 38.6C153 36.9 153.4 35.6 154.3 34.6C155.2 33.7 156.4 33.2 157.9 33.2C159.1 33.2 160.1 33.5 160.9 34C161.6 34.4 162.2 35.2 162.5 36.3ZM163.9 38.3C163.9 37.4 164.1 36.5 164.6 35.7C165 34.9 165.7 34.2 166.5 33.8C167.3 33.4 168.2 33.1 169.2 33.1C170.8 33.1 172 33.6 173 34.6C174 35.6 174.5 36.9 174.5 38.4C174.5 40 174 41.2 173 42.3C172 43.3 170.7 43.8 169.2 43.8C168.3 43.8 167.4 43.6 166.5 43.2C165.7 42.8 165 42.1 164.6 41.3C164.1 40.5 163.9 39.5 163.9 38.3ZM166.7 38.5C166.7 39.5 166.9 40.3 167.4 40.8C167.9 41.3 168.5 41.6 169.2 41.6C169.9 41.6 170.5 41.3 171 40.8C171.5 40.3 171.7 39.5 171.7 38.4C171.7 37.4 171.5 36.6 171 36.1C170.5 35.6 169.9 35.3 169.2 35.3C168.5 35.3 167.9 35.6 167.4 36.1C166.9 36.7 166.7 37.4 166.7 38.5ZM176.4 33.3H178.9V34.7C179.8 33.6 180.9 33.1 182.1 33.1C182.8 33.1 183.3 33.2 183.8 33.5C184.3 33.8 184.7 34.2 185 34.7C185.5 34.2 185.9 33.7 186.5 33.5C187 33.2 187.6 33.1 188.2 33.1C189 33.1 189.6 33.3 190.1 33.6C190.6 33.9 191 34.4 191.3 34.9C191.5 35.3 191.6 36 191.6 37V43.6H188.9V37.7C188.9 36.7 188.8 36 188.6 35.7C188.4 35.3 188 35.1 187.4 35.1C187 35.1 186.7 35.2 186.3 35.4C186 35.6 185.7 36 185.6 36.4C185.5 36.9 185.4 37.6 185.4 38.5V43.4H182.7V38C182.7 37 182.7 36.4 182.6 36.1C182.5 35.8 182.4 35.6 182.2 35.5C182 35.4 181.7 35.3 181.4 35.3C181 35.3 180.6 35.4 180.3 35.6C180 35.8 179.7 36.1 179.6 36.6C179.5 37 179.4 37.7 179.4 38.7V43.7H176.7L176.4 33.3Z" fill="#009EE8"/>
<path d="M152.9 14L155.7 14.9C155.3 16.5 154.6 17.6 153.6 18.4C152.6 19.2 151.4 19.5 149.8 19.5C147.9 19.5 146.4 18.9 145.2 17.6C144 16.3 143.4 14.6 143.4 12.3C143.4 9.90005 144 8.10005 145.2 6.80005C146.4 5.50005 148 4.80005 150 4.80005C151.7 4.80005 153.1 5.30005 154.2 6.30005C154.8 6.90005 155.3 7.80005 155.7 8.90005L152.9 9.60005C152.7 8.90005 152.4 8.30005 151.9 7.90005C151.4 7.50005 150.7 7.30005 150 7.30005C148.9 7.30005 148.1 7.70005 147.4 8.40005C146.7 9.20005 146.4 10.4 146.4 12.1C146.4 13.9 146.7 15.2 147.4 15.9C148 16.7 148.9 17 149.9 17C150.7 17 151.3 16.8 151.9 16.3C152.3 15.8 152.7 15.1 152.9 14ZM158.1 19.3V5.10005H164.1C165.6 5.10005 166.7 5.20005 167.4 5.50005C168.1 5.80005 168.6 6.20005 169 6.90005C169.4 7.60005 169.6 8.30005 169.6 9.10005C169.6 10.2 169.3 11 168.7 11.7C168.1 12.4 167.1 12.8 165.9 13C166.5 13.4 167 13.8 167.4 14.2C167.8 14.6 168.3 15.4 169 16.5L170.7 19.3H167.3L165.2 16.2C164.5 15.1 164 14.4 163.7 14.1C163.4 13.8 163.1 13.6 162.8 13.5C162.5 13.4 162 13.3 161.4 13.3H161V19.2H158.1V19.3ZM161 11.1H163.1C164.5 11.1 165.3 11 165.7 10.9C166 10.8 166.3 10.6 166.5 10.3C166.7 10 166.8 9.70005 166.8 9.20005C166.8 8.70005 166.7 8.30005 166.4 8.00005C166.1 7.70005 165.8 7.50005 165.3 7.40005C165.1 7.40005 164.4 7.40005 163.2 7.40005H161V11.1ZM172.4 19.3V5.10005H182.9V7.50005H175.3V10.6H182.4V13H175.3V16.8H183.2V19.2H172.4V19.3ZM185.6 5.10005H190.8C192 5.10005 192.9 5.20005 193.5 5.40005C194.3 5.60005 195 6.10005 195.6 6.70005C196.2 7.30005 196.6 8.10005 197 9.00005C197.3 9.90005 197.5 11 197.5 12.3C197.5 13.5 197.4 14.5 197.1 15.3C196.7 16.3 196.2 17.2 195.6 17.8C195.1 18.3 194.4 18.7 193.6 18.9C193 19.1 192.1 19.2 191.1 19.2H185.7C185.6 19.3 185.6 5.10005 185.6 5.10005ZM188.4 7.50005V16.9H190.5C191.3 16.9 191.9 16.9 192.2 16.8C192.7 16.7 193 16.5 193.4 16.2C193.7 15.9 194 15.5 194.1 14.8C194.3 14.2 194.4 13.3 194.4 12.2C194.4 11.1 194.3 10.3 194.1 9.70005C193.9 9.10005 193.6 8.70005 193.3 8.30005C193 8.00005 192.5 7.80005 192 7.60005C191.6 7.50005 190.8 7.50005 189.7 7.50005H188.4ZM199.8 19.3V5.10005H202.7V19.3H199.8ZM208.5 19.3V7.50005H204.3V5.10005H215.5V7.50005H211.3V19.3H208.5ZM75.6 43.6V29.4H79.9L82.4 39.1L84.9 29.4H89.2V43.6H86.6V32.4001L83.8 43.6H81L78.2 32.4001V43.6H75.6ZM104.8 43.6H101.7L100.5 40.4001H94.8L93.6 43.6H90.6L96.1 29.4H99.1L104.8 43.6ZM99.6 38L97.6 32.8L95.7 38H99.6ZM106.4 43.6V29.4H109.3V35.7001L115.1 29.4H118.9L113.6 34.9001L119.2 43.5H115.5L111.6 36.8L109.3 39.2001V43.5C109.3 43.6 106.4 43.6 106.4 43.6ZM120.6 43.6V29.4H131.1V31.8H123.5V34.9001H130.6V37.3H123.5V41.1H131.4V43.5H120.6V43.6ZM133.8 43.6V29.4H139.8C141.3 29.4 142.4 29.5 143.1 29.8C143.8 30.1 144.3 30.5 144.7 31.2001C145.1 31.9001 145.3 32.6001 145.3 33.4001C145.3 34.5001 145 35.3 144.4 36C143.8 36.7001 142.9 37.1 141.6 37.3C142.2 37.7001 142.7 38.1 143.1 38.5C143.5 38.9001 144 39.7001 144.7 40.8L146.4 43.6H143L141 40.5C140.3 39.4001 139.8 38.7001 139.5 38.4001C139.2 38.1001 138.9 37.9 138.6 37.8C138.3 37.7001 137.8 37.6 137.2 37.6H136.6V43.5L133.8 43.6ZM136.7 35.4001H138.8C140.2 35.4001 141 35.3001 141.4 35.2001C141.7 35.1 142 34.9 142.2 34.6C142.4 34.3 142.5 34 142.5 33.5C142.5 33 142.4 32.6 142.1 32.3C141.8 32 141.5 31.8001 141 31.7001C140.8 31.7001 140.1 31.7001 138.9 31.7001H136.7V35.4001Z" fill="white"/>
<path fill-rule="evenodd" clip-rule="evenodd" d="M63 40.7V8.3C63 5.9 61.2 4 58.9 4H4.30001C2.00001 4 0.100006 5.9 0.100006 8.3V40.7C0.100006 43.1 2.00001 45 4.30001 45H58.9C61.2 45 63 43.1 63 40.7Z" fill="#009EE8"/>
<path fill-rule="evenodd" clip-rule="evenodd" d="M0.100006 40.9C0.200006 43.2 2.10001 45 4.30001 45H27.8L32.9 39.8C32.4 40.2 31.7 40.5 31 40.5H29.1H24.4H11.7C9.50001 40.5 7.40001 39.6 5.90001 38.1C3.20001 35 1.80001 36.9 0.800006 36.9H0.400006C0.300006 36.9 0.200006 36.9 0.100006 36.9C0.100006 36.9 0.100006 40.9 0.100006 40.9Z" fill="#005898"/>
<path fill-rule="evenodd" clip-rule="evenodd" d="M0 17.2V37.9C0.7 37.3 1.7 36.9 2.7 36.9H3.1C4.2 36.9 5.2 37.3 6 38.1C7.5 39.6 9.6 40.5 11.8 40.5H24.5H29.2H31C32.7 40.5 34.1 39.1 34.1 37.4C34.1 35.8 33 34.5 31.5 34.3C33 34 34.1 32.8 34.1 31.2C34.1 29.6 32.9 28.3 31.4 28.1C32.9 27.8 34.1 26.2 34.1 24.6C34.1 23.1 33.1 21.9 31.7 21.5H44.7C46.4 21.5 47.8 20.1 47.8 18.4C47.8 16.7 46.4 15.3 44.7 15.3H29.1H26.4H25.4C26.5 14.9 27.3 13.8 27.3 12.5C27.3 10.8 25.9 9.5 24.3 9.5H14.9C13.9 9.5 12.9 9.9 12.1 10.6L6 16.6C5.2 17.4 4.1 17.8 3 17.8H2.1C1.3 17.7 0.6 17.5 0 17.2Z" fill="white"/>
<path d="M46.6 20.8C46.1 21.2 45.4 21.5 44.6 21.5H31.6C33 21.8 34 23.1 34 24.6C34 26.2 32.8 27.8 31.3 28.1C32.8 28.3 34 29.6 34 31.2001C34 32.7001 32.9 34 31.4 34.3C31.8 34.4 32.3 34.5 32.6 34.8C32.7 34.8 46.6 20.8 46.6 20.8Z" fill="#005898"/>
</svg>
